<?xml version="1.0" encoding="UTF-8" standalone="no"?>
<!-- Generator: Adobe Illustrator 22.1.0, SVG Export Plug-In . SVG Version: 6.00 Build 0)  -->

<svg
   xmlns:dc="http://purl.org/dc/elements/1.1/"
   xmlns:cc="http://creativecommons.org/ns#"
   xmlns:rdf="http://www.w3.org/1999/02/22-rdf-syntax-ns#"
   xmlns:svg="http://www.w3.org/2000/svg"
   xmlns="http://www.w3.org/2000/svg"
   xmlns:sodipodi="http://sodipodi.sourceforge.net/DTD/sodipodi-0.dtd"
   xmlns:inkscape="http://www.inkscape.org/namespaces/inkscape"
   version="1.1"
   id="Camada_1"
   x="0px"
   y="0px"
   viewBox="0 0 1000 350"
   xml:space="preserve"
   sodipodi:docname="Webysther_2018-08-23_-_Logo_Falconi.svg"
   width="1000"
   height="350"
   inkscape:version="0.92.3 (2405546, 2018-03-11)"><metadata
   id="metadata388"><rdf:RDF><cc:Work
       rdf:about=""><dc:format>image/svg+xml</dc:format><dc:type
         rdf:resource="http://purl.org/dc/dcmitype/StillImage" /><dc:title></dc:title></cc:Work></rdf:RDF></metadata><defs
   id="defs386" /><sodipodi:namedview
   pagecolor="#ffffff"
   bordercolor="#666666"
   borderopacity="1"
   objecttolerance="10"
   gridtolerance="10"
   guidetolerance="10"
   inkscape:pageopacity="0"
   inkscape:pageshadow="2"
   inkscape:window-width="1366"
   inkscape:window-height="715"
   id="namedview384"
   showgrid="false"
   inkscape:zoom="0.60666667"
   inkscape:cx="800"
   inkscape:cy="252.1978"
   inkscape:window-x="-8"
   inkscape:window-y="-8"
   inkscape:window-maximized="1"
   inkscape:current-layer="Camada_1" />
<style
   type="text/css"
   id="style200">
	.st0{fill:url(#SVGID_1_);}
	.st1{fill:url(#SVGID_2_);}
	.st2{fill:url(#SVGID_3_);}
	.st3{opacity:0.5;fill:#C8A046;}
	.st4{fill:url(#SVGID_4_);}
	.st5{fill:url(#SVGID_5_);}
	.st6{fill:url(#SVGID_6_);}
	.st7{opacity:0.5;fill:#A03C5A;}
	.st8{opacity:0.5;fill:#3CA06E;}
	.st9{opacity:0.5;fill:#195AB9;}
	.st10{fill:url(#SVGID_7_);}
	.st11{fill:url(#SVGID_8_);}
	.st12{fill:url(#SVGID_9_);}
	.st13{fill:url(#SVGID_10_);}
	.st14{fill:url(#SVGID_11_);}
	.st15{fill:url(#SVGID_12_);}
	.st16{fill:url(#SVGID_13_);}
</style>
<g
   id="g381"
   transform="matrix(0.99011187,0,0,0.99011187,-296.98016,-268.68758)">
	<g
   id="g300">
		<g
   id="g226">
			<linearGradient
   id="SVGID_1_"
   gradientUnits="userSpaceOnUse"
   x1="378.9718"
   y1="480.68781"
   x2="585.50262"
   y2="356.76929">
				<stop
   offset="0"
   style="stop-color:#195AB9"
   id="stop202" />
				<stop
   offset="0.1177"
   style="stop-color:#2A56AD"
   id="stop204" />
				<stop
   offset="0.7238"
   style="stop-color:#7F4372"
   id="stop206" />
				<stop
   offset="1"
   style="stop-color:#A03C5A"
   id="stop208" />
			</linearGradient>
			<path
   class="st0"
   d="m 317.7,393.5 c 3.5,29 7.8,88.5 17,104.3 9.2,15.8 35.3,33.5 41.7,41.3 6.4,7.8 11.3,13.4 23.3,15.5 12,2.1 9.2,12.7 22.6,11.3 1.3,-0.1 2.8,-0.4 4.2,-0.6 -14.8,-5.5 -28.6,-13.3 -40.8,-23 0,0 0,0 0,0 0,0 0,0 0,0 -1.7,-2.1 -3.3,-4.3 -4.8,-6.4 -0.3,-0.4 -0.5,-0.8 -0.8,-1.1 -4.8,-6.9 -9.1,-14.3 -12.7,-22 0,0 0,0 0,0 -8.9,-19.1 -13.9,-40.3 -13.9,-62.7 0,-34.9 12.1,-67 32.2,-92.4 0,0 0,0 0,0 2,-1.6 4.1,-3.2 6.3,-4.7 0.5,-0.4 1,-0.7 1.5,-1 2.1,-1.4 4.2,-2.8 6.3,-4.2 0.1,0 0.1,-0.1 0.2,-0.1 2.4,-1.5 4.9,-2.9 7.4,-4.3 0.1,-0.1 0.2,-0.1 0.3,-0.2 2.5,-1.4 5.1,-2.6 7.6,-3.8 19.1,-8.9 40.3,-13.9 62.8,-13.9 17.9,0 35,3.2 50.8,9 19.1,-4 47.8,-3.8 69.7,23.3 31,38.5 45.2,92.6 46.6,135.8 3.6,-13.9 5.5,-28.4 5.5,-43.4 0,-95.3 -77.3,-172.6 -172.6,-172.6 -73.4,0 -136,45.8 -160.9,110.3 0.1,1.8 0.3,3.7 0.5,5.6 z"
   id="path211"
   style="fill:url(#SVGID_1_)"
   inkscape:connector-curvature="0" />
			<linearGradient
   id="SVGID_2_"
   gradientUnits="userSpaceOnUse"
   x1="305.59079"
   y1="477.50629"
   x2="645.1922"
   y2="477.50629">
				<stop
   offset="0"
   style="stop-color:#3CA06E"
   id="stop213" />
				<stop
   offset="0.1373"
   style="stop-color:#47A06B"
   id="stop215" />
				<stop
   offset="0.3785"
   style="stop-color:#64A063"
   id="stop217" />
				<stop
   offset="0.6925"
   style="stop-color:#93A055"
   id="stop219" />
				<stop
   offset="1"
   style="stop-color:#C8A046"
   id="stop221" />
			</linearGradient>
			<path
   class="st1"
   d="m 598.6,357.6 c -21.8,-27.1 -50.6,-27.3 -69.7,-23.3 15.2,5.5 29.2,13.4 41.6,23.3 0,0 0,0 0,0 0,0 0,0 0,0 1.6,2.1 3.2,4.2 4.8,6.4 0.3,0.4 0.6,0.9 0.9,1.3 3.1,4.5 6,9.2 8.7,14.1 0,0 0,0.1 0.1,0.1 1.4,2.5 2.7,5.1 3.9,7.7 0,0 0,0 0,0 8.9,19.1 13.9,40.3 13.9,62.8 0,34.9 -12.1,67 -32.2,92.4 0,0 0,0 0,0 0,0 0,0 0,0 -2.1,1.7 -4.2,3.2 -6.4,4.8 -0.4,0.3 -0.8,0.6 -1.3,0.9 -4.5,3.1 -9.2,6.1 -14.1,8.7 0,0 0,0 0,0 -2.6,1.4 -5.2,2.7 -7.8,3.9 0,0 0,0 0,0 -19.1,8.9 -40.3,13.9 -62.7,13.9 -18.2,0 -35.5,-3.3 -51.6,-9.3 -1.4,0.3 -2.8,0.5 -4.2,0.6 -13.4,1.4 -10.6,-9.2 -22.6,-11.3 -12,-2.1 -17,-7.8 -23.3,-15.5 -6.4,-7.8 -32.5,-25.4 -41.7,-41.3 -9.2,-15.8 -13.4,-75.3 -17,-104.3 -0.2,-2 -0.4,-3.9 -0.5,-5.7 -7.5,19.3 -11.6,40.3 -11.6,62.2 0,95.3 77.3,172.6 172.5,172.6 80.3,0 147.8,-54.9 167.1,-129.2 -1.6,-43.2 -15.8,-97.2 -46.8,-135.8 z"
   id="path224"
   style="fill:url(#SVGID_2_)"
   inkscape:connector-curvature="0" />
		</g>
		
			<radialGradient
   id="SVGID_3_"
   cx="1536.7725"
   cy="944.24518"
   r="298.07031"
   gradientTransform="matrix(0,0.9993,-0.9993,0,1543.5001,-1135.6088)"
   gradientUnits="userSpaceOnUse">
			<stop
   offset="0.5"
   style="stop-color:#C8A046"
   id="stop228" />
			<stop
   offset="0.582"
   style="stop-color:#C4A047"
   id="stop230" />
			<stop
   offset="0.667"
   style="stop-color:#B7A04B"
   id="stop232" />
			<stop
   offset="0.7534"
   style="stop-color:#A3A051"
   id="stop234" />
			<stop
   offset="0.8407"
   style="stop-color:#86A059"
   id="stop236" />
			<stop
   offset="0.9279"
   style="stop-color:#61A064"
   id="stop238" />
			<stop
   offset="1"
   style="stop-color:#3CA06E"
   id="stop240" />
		</radialGradient>
		<path
   class="st2"
   d="m 594.5,566.3 c 20.2,-25.4 32.2,-57.5 32.2,-92.4 0,-8.2 -0.7,-16.2 -1.9,-24 -6,-37.3 -26,-69.9 -54.3,-92.4 20.2,25.4 32.2,57.4 32.2,92.4 0,34.9 -12.1,67 -32.2,92.4 -22.5,28.3 -55.1,48.2 -92.4,54.3 -7.8,1.3 -15.8,1.9 -24,1.9 -34.9,0 -67,-12.1 -92.4,-32.2 -34.2,-27.2 -54.8,-69.8 -56.2,-116.3 0,95.3 77.3,172.6 172.5,172.6 47.3,0 89.3,-22 116.5,-56.3 z"
   id="path243"
   style="fill:url(#SVGID_3_)"
   inkscape:connector-curvature="0" />
		<path
   class="st3"
   d="m 570.5,357.6 c 7.2,9.1 13.4,19 18.3,29.6 15.5,19.4 26.1,42.8 30.3,68.4 1.3,7.8 2,15.8 2,24 0,34.9 -12.1,67 -32.2,92.4 -2.7,3.4 -5.6,6.7 -8.6,9.8 5.1,-4.8 9.8,-10 14.2,-15.5 20.2,-25.4 32.2,-57.5 32.2,-92.4 0,-8.2 -0.7,-16.2 -2,-24 -6,-37.2 -25.9,-69.8 -54.2,-92.3 z"
   id="path245"
   inkscape:connector-curvature="0"
   style="opacity:0.5;fill:#c8a046" />
		
			<radialGradient
   id="SVGID_4_"
   cx="1462.3589"
   cy="1107.2982"
   r="289.66119"
   gradientTransform="matrix(0,0.9993,-0.9993,0,1543.5001,-1135.6088)"
   gradientUnits="userSpaceOnUse">
			<stop
   offset="0.5"
   style="stop-color:#A03C5A"
   id="stop247" />
			<stop
   offset="0.5968"
   style="stop-color:#A24059"
   id="stop249" />
			<stop
   offset="0.6971"
   style="stop-color:#A74D57"
   id="stop251" />
			<stop
   offset="0.7991"
   style="stop-color:#AF6153"
   id="stop253" />
			<stop
   offset="0.9014"
   style="stop-color:#BA7E4D"
   id="stop255" />
			<stop
   offset="0.9966"
   style="stop-color:#C8A046"
   id="stop257" />
		</radialGradient>
		<path
   class="st4"
   d="m 650.7,450 c 0,-47.1 -22,-89.1 -56.2,-116.3 -25.4,-20.2 -57.5,-32.2 -92.4,-32.2 -8.2,0 -16.2,0.7 -24,2 -37.3,6 -69.9,25.9 -92.4,54.3 25.4,-20.2 57.4,-32.2 92.4,-32.2 34.9,0 67,12.1 92.4,32.2 28.3,22.5 48.2,55.1 54.3,92.4 1.3,7.8 1.9,15.8 1.9,24 0,34.9 -12.1,67 -32.2,92.4 -27.2,34.2 -69.2,56.2 -116.3,56.2 95.2,-0.2 172.5,-77.5 172.5,-172.8 z"
   id="path260"
   style="fill:url(#SVGID_4_)"
   inkscape:connector-curvature="0" />
		
			<radialGradient
   id="SVGID_5_"
   cx="1716.0864"
   cy="1034.9191"
   r="293.1825"
   gradientTransform="matrix(0,0.9993,-0.9993,0,1543.5001,-1135.6088)"
   gradientUnits="userSpaceOnUse">
			<stop
   offset="0.5"
   style="stop-color:#3CA06E"
   id="stop262" />
			<stop
   offset="0.613"
   style="stop-color:#3A9C72"
   id="stop264" />
			<stop
   offset="0.7301"
   style="stop-color:#34917F"
   id="stop266" />
			<stop
   offset="0.8491"
   style="stop-color:#2B7D93"
   id="stop268" />
			<stop
   offset="0.9687"
   style="stop-color:#1D62B0"
   id="stop270" />
			<stop
   offset="1"
   style="stop-color:#195AB9"
   id="stop272" />
		</radialGradient>
		<path
   class="st5"
   d="m 478.1,596.6 c 37.3,-6 69.9,-25.9 92.4,-54.3 -25.4,20.2 -57.4,32.3 -92.4,32.3 -34.9,0 -67,-12.1 -92.4,-32.3 -28.3,-22.5 -48.2,-55.1 -54.3,-92.4 -1.3,-7.8 -2,-15.8 -2,-24 0,-34.9 12.1,-67 32.2,-92.4 27.2,-34.2 69.2,-56.2 116.3,-56.2 -95.3,0 -172.5,77.3 -172.5,172.6 0,47.1 22,89.1 56.2,116.3 25.4,20.2 57.5,32.2 92.4,32.2 8.3,0.2 16.3,-0.5 24.1,-1.8 z"
   id="path275"
   style="fill:url(#SVGID_5_)"
   inkscape:connector-curvature="0" />
		
			<radialGradient
   id="SVGID_6_"
   cx="1644.177"
   cy="1184.2123"
   r="298.1051"
   gradientTransform="matrix(0,0.9993,-0.9993,0,1543.5001,-1135.6088)"
   gradientUnits="userSpaceOnUse">
			<stop
   offset="0.5"
   style="stop-color:#195AB9"
   id="stop277" />
			<stop
   offset="0.5835"
   style="stop-color:#1D59B6"
   id="stop279" />
			<stop
   offset="0.6701"
   style="stop-color:#2A56AD"
   id="stop281" />
			<stop
   offset="0.7581"
   style="stop-color:#3E529F"
   id="stop283" />
			<stop
   offset="0.8471"
   style="stop-color:#5B4B8A"
   id="stop285" />
			<stop
   offset="0.9359"
   style="stop-color:#804370"
   id="stop287" />
			<stop
   offset="1"
   style="stop-color:#A03C5A"
   id="stop289" />
		</radialGradient>
		<path
   class="st6"
   d="m 353.5,450 c 0,-34.9 12.1,-67 32.2,-92.4 22.5,-28.3 55.1,-48.2 92.4,-54.3 7.8,-1.3 15.8,-2 24,-2 34.9,0 67,12.1 92.4,32.2 34.2,27.2 56.2,69.2 56.2,116.3 0,-95.3 -77.3,-172.6 -172.6,-172.6 -47.1,0 -89.1,22 -116.3,56.2 -20.2,25.4 -32.2,57.5 -32.2,92.4 0,8.2 0.7,16.2 2,24 6,37.3 26,69.9 54.3,92.4 C 365.6,517 353.5,484.9 353.5,450 Z"
   id="path292"
   style="fill:url(#SVGID_6_)"
   inkscape:connector-curvature="0" />
		<path
   class="st7"
   d="m 385.8,357.6 c 9.1,-7.2 19,-13.4 29.6,-18.3 19.4,-15.5 42.8,-26.1 68.4,-30.3 7.8,-1.3 15.8,-2 24,-2 34.9,0 67,12.1 92.4,32.2 3.4,2.7 6.7,5.6 9.8,8.6 -4.8,-5.1 -10,-9.8 -15.5,-14.2 -25.4,-20.2 -57.5,-32.2 -92.4,-32.2 -8.2,0 -16.2,0.7 -24,2 -37.2,6 -69.8,25.9 -92.3,54.2 z"
   id="path294"
   inkscape:connector-curvature="0"
   style="opacity:0.5;fill:#a03c5a" />
		<path
   class="st8"
   d="m 570.5,542.4 c -9.1,7.2 -19,13.4 -29.6,18.3 -19.4,15.5 -42.8,26.1 -68.4,30.3 -7.8,1.3 -15.8,2 -24,2 -34.9,0 -67,-12.1 -92.4,-32.2 -3.4,-2.7 -6.7,-5.6 -9.8,-8.6 4.8,5.1 10,9.8 15.5,14.2 25.4,20.2 57.5,32.2 92.4,32.2 8.2,0 16.2,-0.7 24,-2 37.2,-6 69.8,-25.9 92.3,-54.2 z"
   id="path296"
   inkscape:connector-curvature="0"
   style="opacity:0.5;fill:#3ca06e" />
		<path
   class="st9"
   d="m 385.8,542.4 c -7.2,-9.1 -13.4,-19 -18.3,-29.6 -15.5,-19.4 -26.1,-42.8 -30.3,-68.4 -1.3,-7.8 -2,-15.8 -2,-24 0,-34.9 12.1,-67 32.2,-92.4 2.7,-3.4 5.6,-6.7 8.6,-9.8 -5.1,4.8 -9.8,10 -14.2,15.5 -20.2,25.4 -32.2,57.5 -32.2,92.4 0,8.2 0.7,16.2 2,24 6,37.2 25.9,69.8 54.2,92.3 z"
   id="path298"
   inkscape:connector-curvature="0"
   style="opacity:0.5;fill:#195ab9" />
	</g>
	<g
   id="g379">
		
			<radialGradient
   id="SVGID_7_"
   cx="818.64691"
   cy="220.09821"
   r="507.18021"
   gradientTransform="matrix(0.9993,0,0,0.9993,0.3267,1.7023)"
   gradientUnits="userSpaceOnUse">
			<stop
   offset="1.688128e-03"
   style="stop-color:#879696"
   id="stop302" />
			<stop
   offset="0.2567"
   style="stop-color:#839191"
   id="stop304" />
			<stop
   offset="0.5401"
   style="stop-color:#778484"
   id="stop306" />
			<stop
   offset="0.8357"
   style="stop-color:#646E6E"
   id="stop308" />
		</radialGradient>
		<path
   class="st10"
   d="M 786.5,394.6 H 752 l 0.9,-7.3 c 1.6,-13.9 6.1,-23 20.5,-23 5,0 10.9,0.9 19.8,3.2 l 5,-19.5 c -11.1,-3.2 -18.2,-4.5 -25.5,-4.5 -23,0 -38.9,11.6 -43.2,40.9 l -1.6,10.2 h -17.3 l -2.5,19.8 h 17.1 l -14.5,103.2 c -2,14.3 -8.4,21.8 -21.6,22.3 l -3,19.1 c 27.5,0 44.8,-14.1 48.6,-40.7 L 749.2,414.4 H 784 Z"
   id="path311"
   style="fill:url(#SVGID_7_)"
   inkscape:connector-curvature="0" />
		
			<radialGradient
   id="SVGID_8_"
   cx="818.64691"
   cy="220.09821"
   r="507.18021"
   gradientTransform="matrix(0.9993,0,0,0.9993,0.3267,1.7023)"
   gradientUnits="userSpaceOnUse">
			<stop
   offset="1.688128e-03"
   style="stop-color:#879696"
   id="stop313" />
			<stop
   offset="0.2567"
   style="stop-color:#839191"
   id="stop315" />
			<stop
   offset="0.5401"
   style="stop-color:#778484"
   id="stop317" />
			<stop
   offset="0.8357"
   style="stop-color:#646E6E"
   id="stop319" />
		</radialGradient>
		<path
   class="st11"
   d="m 864.3,389 -1.4,10.5 c -5.7,-1.4 -15.9,-3.6 -25.9,-3.6 -38,0 -61.4,31.4 -61.4,71.6 0,32.1 15.2,50.2 45.7,50.2 8,0 14.1,-1.1 19.5,-2.3 l 8.2,-1.6 c 5.2,-1.1 10.9,-0.9 15.5,1.6 l 9.5,5.2 10.7,-17 -11.8,-7.5 16,-107.1 z m -15.4,105.7 -9.3,1.8 c -4.3,0.9 -8.9,1.4 -14.8,1.4 -17.5,0 -24.5,-13 -24.5,-31.1 0,-24.3 11.4,-50.7 36.8,-50.7 7.5,0 15.2,1.4 23,3.2 z"
   id="path322"
   style="fill:url(#SVGID_8_)"
   inkscape:connector-curvature="0" />
		
			<radialGradient
   id="SVGID_9_"
   cx="818.64691"
   cy="220.09821"
   r="507.18021"
   gradientTransform="matrix(0.9993,0,0,0.9993,0.3267,1.7023)"
   gradientUnits="userSpaceOnUse">
			<stop
   offset="1.688128e-03"
   style="stop-color:#879696"
   id="stop324" />
			<stop
   offset="0.2567"
   style="stop-color:#839191"
   id="stop326" />
			<stop
   offset="0.5401"
   style="stop-color:#778484"
   id="stop328" />
			<stop
   offset="0.8357"
   style="stop-color:#646E6E"
   id="stop330" />
		</radialGradient>
		<path
   class="st12"
   d="m 1099.4,393.5 c -37.3,0 -64.8,30 -64.8,74.8 0,6.4 0.7,12.4 2.1,17.8 l -12,4.7 -9.1,3.2 c -9.5,3.2 -19.8,5 -28.6,5 -17,0 -26.1,-12.5 -26.1,-31.6 0,-25.7 11.6,-52.5 37.3,-52.5 8.4,0 17.5,2.5 25.7,5.5 l 8.4,3 6.1,-20.9 -8,-3 c -9.5,-3.4 -21.8,-5.9 -31.6,-5.9 -37.1,0 -63.4,30.7 -63.4,74.8 0,31.1 17.7,52.3 47.5,52.3 12,0 22.7,-2.3 34.8,-5.9 l 10,-3.2 17.6,-7.2 c 8.1,10.4 20.5,16.3 36.7,16.3 40.2,0 64.8,-35.2 64.8,-75.2 -0.1,-32.4 -17.4,-52 -47.4,-52 z m -14.5,108 c -17.1,0 -25.2,-13.2 -25.2,-32.7 0,-31.1 15,-55.9 36.8,-55.9 17,0 25.5,13 25.5,32.5 -0.1,24.7 -12.6,56.1 -37.1,56.1 z"
   id="path333"
   style="fill:url(#SVGID_9_)"
   inkscape:connector-curvature="0" />
		
			<radialGradient
   id="SVGID_10_"
   cx="818.64691"
   cy="220.09821"
   r="507.18021"
   gradientTransform="matrix(0.9993,0,0,0.9993,0.3267,1.7023)"
   gradientUnits="userSpaceOnUse">
			<stop
   offset="1.688128e-03"
   style="stop-color:#879696"
   id="stop335" />
			<stop
   offset="0.2567"
   style="stop-color:#839191"
   id="stop337" />
			<stop
   offset="0.5401"
   style="stop-color:#778484"
   id="stop339" />
			<stop
   offset="0.8357"
   style="stop-color:#646E6E"
   id="stop341" />
		</radialGradient>
		<polygon
   class="st13"
   points="1275.8,389.1 1257.3,520.6 1283.2,520.6 1301.5,389.1 "
   id="polygon344"
   style="fill:url(#SVGID_10_)" />
		
			<radialGradient
   id="SVGID_11_"
   cx="818.64691"
   cy="220.09821"
   r="507.18021"
   gradientTransform="matrix(0.9993,0,0,0.9993,0.3267,1.7023)"
   gradientUnits="userSpaceOnUse">
			<stop
   offset="1.688128e-03"
   style="stop-color:#879696"
   id="stop346" />
			<stop
   offset="0.2567"
   style="stop-color:#839191"
   id="stop348" />
			<stop
   offset="0.5401"
   style="stop-color:#778484"
   id="stop350" />
			<stop
   offset="0.8357"
   style="stop-color:#646E6E"
   id="stop352" />
		</radialGradient>
		<path
   class="st14"
   d="m 1214.6,395.1 c -8.7,0 -20.3,1.1 -36.8,5.5 -6.5,-9.2 -18,-13.9 -34,-13.7 -0.9,0 -1.9,0 -3,0.1 l 0.2,15.3 c 16.3,0.4 19.2,17.4 17.4,31.3 l -0.1,0.8 v 0 l -12,86.2 h 24.5 l 12,-86.5 h 0.1 l 0.4,-3 c 0,-0.2 0,-0.4 0.1,-0.7 l 1.3,-9.6 c 13.6,-3.6 19.8,-4.1 25.5,-4.1 17.5,0 20.5,10.9 18.4,25.2 l -10.9,78.7 h 24.6 l 11.4,-80.9 c 3.9,-29.1 -10.5,-44.6 -39.1,-44.6 z"
   id="path355"
   style="fill:url(#SVGID_11_)"
   inkscape:connector-curvature="0" />
		
			<radialGradient
   id="SVGID_12_"
   cx="818.64691"
   cy="220.09821"
   r="507.18021"
   gradientTransform="matrix(0.9993,0,0,0.9993,0.3267,1.7023)"
   gradientUnits="userSpaceOnUse">
			<stop
   offset="1.688128e-03"
   style="stop-color:#879696"
   id="stop357" />
			<stop
   offset="0.2567"
   style="stop-color:#839191"
   id="stop359" />
			<stop
   offset="0.5401"
   style="stop-color:#778484"
   id="stop361" />
			<stop
   offset="0.8357"
   style="stop-color:#646E6E"
   id="stop363" />
		</radialGradient>
		<path
   class="st15"
   d="m 935.1,341.1 h -25 l -17.6,131.6 -0.4,3.1 c -3.9,29.3 10.5,44.8 39.3,44.8 1,0 2,0 3,0 V 498.9 C 918.7,498.3 915.5,488.4 917,475.2 Z"
   id="path366"
   style="fill:url(#SVGID_12_)"
   inkscape:connector-curvature="0" />
		
			<radialGradient
   id="SVGID_13_"
   cx="818.64691"
   cy="220.09821"
   r="507.18021"
   gradientTransform="matrix(0.9993,0,0,0.9993,0.3267,1.7023)"
   gradientUnits="userSpaceOnUse">
			<stop
   offset="1.688128e-03"
   style="stop-color:#879696"
   id="stop368" />
			<stop
   offset="0.2567"
   style="stop-color:#839191"
   id="stop370" />
			<stop
   offset="0.5401"
   style="stop-color:#778484"
   id="stop372" />
			<stop
   offset="0.8357"
   style="stop-color:#646E6E"
   id="stop374" />
		</radialGradient>
		<path
   class="st16"
   d="m 1291.7,355.3 c -6.4,0 -11.7,4.7 -12.6,11 l -2.2,16.4 h 25 l 3.7,-27.4 z"
   id="path377"
   style="fill:url(#SVGID_13_)"
   inkscape:connector-curvature="0" />
	</g>
</g>
</svg>